<?xml version="1.0" standalone="no"?>
<!DOCTYPE svg PUBLIC "-//W3C//DTD SVG 20010904//EN"
 "http://www.w3.org/TR/2001/REC-SVG-20010904/DTD/svg10.dtd">
<svg version="1.0" xmlns="http://www.w3.org/2000/svg"
 width="1280.000000pt" height="1280.000000pt" viewBox="0 0 1280.000000 1280.000000"
 preserveAspectRatio="xMidYMid meet">
<g transform="translate(0.000000,1280.000000) scale(0.100000,-0.100000)"
fill="#000000" stroke="none">
<path d="M8376 11932 c-16 -27 72 -63 274 -112 163 -39 180 -48 180 -96 0 -22
-6 -37 -15 -40 -9 -4 -119 20 -246 52 -225 58 -231 59 -245 40 -8 -11 -14 -23
-14 -26 0 -4 30 -21 68 -38 69 -32 169 -59 330 -88 57 -10 98 -22 105 -32 7
-9 38 -41 69 -72 66 -65 88 -109 88 -177 0 -50 -20 -144 -46 -225 -15 -45 -18
-48 -50 -48 -19 0 -77 -18 -130 -40 -117 -49 -217 -80 -254 -80 -18 0 -35 8
-44 22 -15 21 -18 21 -93 10 -119 -19 -271 -59 -341 -92 -34 -16 -102 -56
-150 -89 -48 -33 -113 -71 -146 -85 -229 -101 -464 -410 -542 -712 -22 -86
-25 -115 -21 -214 3 -85 9 -126 22 -155 15 -31 20 -73 25 -189 l5 -150 125
-37 c69 -21 146 -43 173 -50 37 -9 48 -16 53 -36 4 -14 4 -102 0 -197 -3 -94
-10 -290 -15 -436 -10 -287 -11 -296 -76 -690 -65 -397 -78 -635 -40 -762 8
-28 19 -44 31 -47 10 -2 42 -25 71 -52 52 -49 67 -54 145 -49 39 2 66 -16 82
-55 8 -18 24 -39 36 -45 12 -6 81 -16 153 -21 273 -20 386 -32 408 -43 29 -14
47 -74 55 -181 8 -100 -14 -260 -62 -445 -20 -74 -50 -194 -69 -266 -52 -199
-58 -334 -17 -334 17 0 121 -51 222 -107 98 -56 198 -83 343 -93 73 -5 166
-14 207 -19 244 -33 666 -40 1055 -17 228 14 232 14 450 71 258 67 276 67 475
9 80 -23 156 -38 212 -41 109 -7 145 5 152 51 9 55 21 624 19 846 -3 320 -24
553 -89 995 -19 132 -55 375 -79 540 -24 165 -51 370 -59 455 -19 177 -37 517
-29 537 3 8 23 13 57 13 28 0 101 12 161 26 61 14 148 32 195 41 109 19 120
25 120 67 0 51 -77 242 -215 531 -31 66 -96 208 -144 315 -48 107 -107 224
-130 259 -51 80 -45 91 41 67 311 -86 723 -315 954 -529 l62 -57 69 0 c89 0
131 14 139 47 31 123 -95 353 -302 554 -181 175 -387 301 -720 442 -71 30
-141 60 -155 67 -45 21 -50 47 -37 180 14 149 9 163 -83 232 -64 47 -82 68
-60 68 5 0 94 -20 197 -46 279 -67 540 -124 569 -124 18 0 25 5 25 19 0 11 -4
22 -9 25 -5 4 -143 33 -308 65 -330 66 -518 120 -529 153 -7 23 3 85 16 93 10
6 260 -45 557 -116 121 -28 228 -49 237 -46 55 21 -18 46 -329 113 -60 13
-111 24 -112 24 -1 0 -20 26 -42 58 -81 114 -144 132 -289 83 -87 -30 -95 -31
-154 -21 -132 24 -626 125 -660 136 -10 3 -20 19 -23 37 -12 62 -54 93 -137
103 -50 6 -64 3 -123 -25 -37 -17 -79 -31 -94 -30 -14 0 -152 28 -306 63
l-280 63 -8 29 c-31 106 -74 137 -204 142 -86 4 -170 -15 -193 -44 -26 -31
-238 -1 -395 56 -77 28 -111 34 -119 22z m771 -82 c84 -38 117 -100 55 -100
-33 0 -202 60 -202 71 0 11 70 48 90 48 8 0 34 -8 57 -19z m-168 -105 c31 -8
180 -39 331 -70 308 -62 418 -89 473 -117 41 -20 45 -34 21 -80 -15 -30 -17
-30 -67 -24 -249 33 -792 166 -851 209 -22 16 -17 55 10 81 19 19 14 19 83 1z
m1156 -150 c36 -15 54 -40 39 -54 -15 -14 -155 10 -162 27 -14 37 61 54 123
27z m-1100 -35 c50 -12 224 -50 389 -85 404 -88 370 -76 391 -131 24 -63 66
-107 124 -133 27 -11 59 -33 70 -47 41 -52 57 -155 46 -306 l-7 -103 -146 -67
c-203 -92 -184 -90 -233 -25 -11 15 -42 39 -67 54 -26 14 -87 54 -137 88 -168
115 -370 234 -417 245 l-48 12 0 47 c0 25 7 94 16 153 24 157 17 189 -57 258
-56 52 -67 77 -30 65 9 -2 57 -14 106 -25z m973 -69 c87 -22 204 -44 507 -96
259 -45 396 -74 413 -88 14 -12 8 -94 -8 -111 -4 -4 -61 6 -127 22 -65 17
-242 56 -393 87 -264 54 -424 91 -482 114 -30 11 -36 37 -18 72 13 23 14 23
108 0z m1242 -141 c14 -9 27 -25 28 -35 4 -16 -2 -17 -45 -11 -107 15 -144 43
-85 64 33 12 69 6 102 -18z m-1206 -24 c77 -19 254 -58 391 -86 138 -29 308
-65 379 -82 121 -29 133 -34 175 -73 25 -24 68 -56 96 -72 73 -43 89 -77 93
-198 6 -142 -2 -164 -68 -197 -29 -14 -109 -40 -178 -58 -68 -17 -140 -37
-160 -46 -48 -19 -82 -9 -359 110 -311 133 -299 126 -311 183 -6 27 -13 111
-17 188 -10 205 -12 210 -93 247 -93 42 -122 64 -122 94 0 31 4 31 174 -10z
m-882 -400 c187 -98 248 -138 248 -164 0 -23 -55 -111 -74 -118 -8 -3 -34 8
-58 24 -24 16 -94 55 -156 86 l-114 57 -146 -16 c-218 -25 -330 -52 -423 -102
-12 -7 -38 131 -28 149 14 25 118 71 259 113 68 20 136 43 150 51 18 10 47 13
101 10 72 -4 83 -8 241 -90z m-834 -48 c-1 -24 13 -83 30 -133 16 -49 35 -115
41 -146 17 -82 57 -129 164 -195 97 -59 137 -91 137 -107 0 -13 -89 -157 -97
-157 -3 0 -31 27 -61 61 -47 52 -59 60 -85 57 -39 -4 -50 -38 -42 -130 7 -77
-6 -89 -43 -39 -62 84 -222 95 -222 15 0 -28 49 -78 104 -106 60 -30 70 -39
54 -49 -7 -5 -28 -9 -45 -9 -68 0 -99 -78 -47 -119 20 -15 41 -21 80 -21 35 0
54 -4 54 -12 0 -23 -83 -216 -155 -358 -87 -173 -175 -371 -175 -392 0 -25 91
-101 167 -140 37 -20 133 -59 213 -88 119 -43 152 -50 186 -45 34 5 43 3 49
-12 14 -35 18 -368 6 -513 -7 -80 -27 -262 -44 -405 -37 -289 -25 -263 -108
-249 -34 5 -41 2 -88 -45 -28 -28 -55 -51 -59 -51 -5 0 -13 32 -19 70 -12 78
-34 120 -62 120 -45 0 -68 -92 -47 -190 8 -36 12 -68 10 -72 -2 -3 -23 -9 -46
-13 -61 -11 -108 -60 -108 -112 0 -47 14 -63 54 -63 34 0 120 45 150 79 37 41
49 28 40 -41 -12 -92 -10 -136 8 -154 15 -15 19 -15 46 2 17 9 48 40 69 68 28
36 39 45 41 33 4 -20 -56 -314 -69 -338 -18 -35 -518 -31 -572 4 -14 9 -36 35
-49 59 l-24 43 -66 -3 c-76 -4 -93 3 -152 61 -24 23 -50 47 -59 54 -8 7 -21
37 -28 67 -11 50 -7 96 49 528 71 545 99 782 107 923 4 55 9 106 11 114 3 10
21 -4 54 -42 88 -98 180 -112 180 -29 0 53 -42 113 -117 168 -35 26 -60 50
-57 55 3 5 22 9 42 9 65 0 111 43 112 105 0 44 -45 145 -65 145 -7 0 -34 -23
-60 -51 -30 -32 -52 -48 -62 -45 -20 8 -15 46 43 360 24 132 44 251 44 266 0
15 16 79 35 141 42 139 46 219 10 219 -28 0 -66 -144 -101 -380 -31 -213 -48
-289 -79 -357 -21 -46 -28 -53 -52 -53 -31 0 -246 56 -275 71 -23 12 -23 60
-1 141 l17 61 95 -6 c52 -4 90 -3 85 2 -5 4 -47 23 -94 41 -47 18 -91 38 -97
43 -17 12 -31 67 -44 169 -19 142 -17 215 10 294 27 80 91 207 105 208 6 1 11
-18 12 -40 2 -50 17 -79 49 -100 36 -24 71 -11 107 41 18 25 35 45 39 45 4 0
12 -15 19 -34 21 -65 94 -109 136 -81 33 21 31 60 -6 131 -17 32 -29 63 -26
69 2 7 27 14 55 17 95 9 131 63 74 108 -26 21 -63 23 -113 9 -12 -3 -14 7 -11
58 l3 62 -37 19 -38 19 22 20 c12 11 45 33 74 48 29 15 104 65 167 110 182
130 238 153 367 154 l81 1 0 -42z m651 -119 c29 -6 88 -34 138 -65 48 -30 105
-62 126 -70 20 -9 37 -22 37 -29 0 -15 10 -10 -188 -81 -180 -64 -247 -93
-299 -128 -20 -14 -43 -26 -49 -26 -19 0 -217 164 -251 206 -69 89 -71 114 -5
114 26 0 104 16 172 36 196 56 234 62 319 43z m591 -92 c41 -29 76 -59 78 -68
4 -21 -40 -39 -171 -70 -85 -20 -99 -21 -108 -9 -12 19 -4 54 21 89 10 14 30
45 44 69 15 24 34 42 44 42 9 -1 51 -24 92 -53z m715 -27 c157 -42 335 -131
343 -172 3 -13 -20 -28 -94 -63 -152 -71 -164 -73 -227 -43 -107 52 -235 74
-338 57 -86 -14 -221 -60 -318 -109 -44 -22 -87 -40 -94 -40 -8 0 -22 20 -31
44 -9 24 -35 62 -58 84 -23 24 -38 47 -35 55 3 9 27 16 65 20 73 8 136 32 243
93 94 53 159 82 209 93 63 15 249 4 335 -19z m1105 -116 c232 -76 587 -305
757 -488 78 -82 215 -288 243 -364 27 -71 19 -102 -28 -114 -45 -12 -100 5
-148 45 -21 18 -101 77 -177 131 -359 254 -533 350 -709 392 -57 13 -132 31
-167 40 -55 13 -81 14 -170 4 -58 -6 -134 -18 -169 -26 -84 -19 -315 -122
-385 -170 -143 -100 -312 -237 -412 -334 -60 -59 -120 -112 -131 -118 -17 -9
-35 -6 -95 20 -41 17 -76 32 -78 34 -3 3 -4 26 -2 52 6 116 188 361 376 506
138 107 221 153 367 204 47 17 130 49 184 72 342 146 550 178 744 114z m-2089
-44 c19 -6 45 -20 57 -33 24 -25 263 -495 312 -612 25 -63 28 -77 19 -104 -6
-17 -17 -31 -24 -31 -6 0 -33 27 -59 59 -25 33 -139 149 -252 258 -276 266
-357 368 -325 407 14 17 157 59 221 65 8 0 31 -4 51 -9z m-274 -177 c189 -229
583 -655 687 -742 98 -82 125 -122 136 -204 14 -95 0 -121 -38 -72 -11 14
-113 123 -227 241 -376 394 -735 798 -735 829 0 15 51 43 81 44 9 1 52 -43 96
-96z m1162 51 c28 -9 58 -25 66 -34 15 -17 10 -22 -72 -79 -149 -102 -302
-249 -396 -378 -17 -24 -36 -43 -43 -43 -20 0 -65 60 -95 125 -28 62 -89 230
-89 245 0 24 226 129 341 160 93 24 219 26 288 4z m-1387 -178 c-12 -303 116
-502 442 -690 54 -31 130 -73 170 -93 99 -49 200 -118 221 -149 24 -38 24 -93
0 -106 -11 -6 -47 -38 -80 -72 -64 -64 -119 -164 -148 -266 -78 -273 -53 -649
47 -715 22 -15 30 -16 57 -5 69 29 112 147 189 515 87 419 89 425 117 436 13
5 44 9 68 9 61 0 80 -27 89 -125 14 -156 73 -338 155 -480 56 -97 210 -257
289 -299 29 -15 55 -26 57 -24 8 7 -65 305 -121 500 -58 201 -113 360 -176
503 -30 67 -38 97 -33 121 8 43 78 107 191 173 70 40 116 78 192 156 55 56
150 146 212 200 62 55 155 146 207 204 52 58 101 109 108 114 11 6 27 -10 61
-55 58 -80 78 -119 94 -188 18 -81 94 -235 200 -404 139 -224 210 -385 210
-477 0 -38 -14 -45 -110 -59 -47 -6 -137 -25 -200 -41 -63 -17 -128 -29 -145
-27 -49 5 -57 47 -65 318 -7 232 -12 274 -34 267 -16 -5 -20 -328 -6 -452 6
-55 15 -145 20 -200 5 -55 22 -206 39 -335 146 -1128 199 -1778 208 -2514 5
-401 3 -480 -8 -487 -8 -5 -75 -9 -149 -9 -126 0 -142 2 -225 31 -82 29 -98
31 -175 26 -47 -3 -170 -24 -275 -47 -104 -22 -244 -49 -310 -60 -66 -11 -149
-25 -185 -31 -110 -21 -370 -14 -628 15 -128 15 -319 31 -425 35 -215 10 -273
22 -411 82 -63 28 -102 52 -126 80 -24 26 -44 39 -61 39 -44 0 -48 14 -27 103
30 128 64 339 103 627 42 316 76 513 155 917 155 788 202 1193 204 1738 1 306
-1 340 -15 343 -14 2 -19 -12 -28 -78 -16 -110 -45 -214 -87 -320 -54 -135
-39 -131 -254 -61 -187 62 -238 89 -265 141 -29 55 -19 86 120 394 215 477
343 706 467 839 80 84 85 80 80 -57z m2163 -81 c0 -15 -24 -30 -109 -67 -145
-63 -255 -127 -384 -222 -128 -95 -315 -279 -402 -396 -129 -173 -170 -194
-170 -84 0 58 37 114 154 230 119 118 279 242 552 426 179 122 219 138 319
135 33 -2 40 -6 40 -22z"/>
<path d="M8044 8424 c-8 -19 -17 -66 -20 -102 -8 -100 -9 -101 -57 -55 -42 40
-76 63 -96 63 -20 0 -49 -42 -60 -87 -15 -57 1 -84 64 -115 39 -19 49 -20 79
-10 33 12 66 8 66 -9 0 -12 -38 -30 -58 -28 -9 1 -22 1 -28 0 -17 -2 -74 -86
-80 -120 -6 -27 -4 -31 15 -31 25 0 53 17 132 77 30 24 62 43 70 43 8 -1 27
-21 42 -46 35 -54 95 -89 140 -80 47 10 77 43 77 87 0 30 -7 43 -39 72 -21 19
-48 38 -60 42 -37 11 -23 31 32 44 111 28 189 93 146 123 -24 16 -111 0 -176
-34 -39 -20 -66 -28 -71 -23 -5 6 -14 41 -21 78 -25 142 -65 188 -97 111z"/>
<path d="M5174 11599 c-289 -22 -637 -138 -869 -289 -44 -29 -127 -98 -183
-154 -207 -201 -249 -287 -437 -881 -82 -257 -116 -332 -232 -505 -143 -214
-272 -439 -356 -620 -68 -149 -71 -165 -13 -70 40 64 56 75 56 36 0 -29 17
-48 59 -66 37 -15 39 -32 9 -52 -20 -14 -21 -17 -8 -33 8 -9 24 -21 37 -26 18
-6 23 -16 23 -42 0 -26 10 -42 45 -77 35 -35 42 -46 33 -58 -15 -18 0 -27 67
-43 27 -6 83 -29 122 -51 91 -50 121 -49 75 3 -17 20 -49 48 -72 64 -45 31
-50 44 -20 52 31 8 20 25 -38 56 -59 32 -65 49 -22 67 65 27 52 78 -31 120
-47 24 -49 35 -9 55 17 9 30 22 30 30 0 7 -32 41 -70 76 -81 71 -96 106 -81
185 20 103 82 210 245 419 144 185 172 252 271 642 97 385 137 464 322 643
132 128 272 229 413 297 99 48 251 103 285 103 33 0 169 -148 153 -167 -6 -7
-17 -13 -25 -13 -28 0 4 -26 91 -75 46 -26 99 -62 117 -81 32 -33 32 -34 13
-48 -19 -15 -18 -16 9 -70 16 -30 52 -81 81 -113 62 -70 150 -205 165 -253 35
-118 46 -219 47 -443 0 -125 4 -230 7 -233 13 -13 28 83 27 169 -1 51 3 106 8
124 8 26 5 50 -14 120 -31 112 -31 131 1 143 14 5 25 14 25 18 0 5 -20 55 -45
111 -48 107 -52 130 -33 161 10 15 9 25 -2 47 -17 32 -113 132 -149 154 -21
13 -22 17 -11 36 21 33 -3 77 -94 171 -61 63 -77 85 -68 94 36 36 -14 93 -118
134 -72 28 -83 39 -52 48 40 12 151 26 210 26 61 0 66 -2 110 -41 26 -23 73
-57 104 -77 52 -34 58 -40 56 -69 -2 -39 5 -48 75 -89 l52 -31 1 -54 c0 -42 6
-63 27 -94 30 -45 34 -70 12 -82 -12 -7 -7 -21 30 -76 47 -69 55 -97 30 -97
-28 0 -28 -29 -1 -75 28 -46 27 -49 -11 -45 -31 2 -30 -23 2 -80 14 -25 46
-85 70 -134 45 -90 47 -120 6 -95 -16 11 -23 11 -33 1 -10 -10 -6 -26 20 -77
18 -36 32 -70 32 -75 0 -6 -11 -15 -25 -20 -14 -5 -25 -16 -25 -25 0 -22 30
-96 53 -128 27 -39 33 -134 17 -263 -10 -77 -10 -108 -2 -116 12 -12 29 22 72
144 23 65 23 71 10 163 -13 98 -11 116 13 97 34 -29 35 26 5 206 -22 127 -22
134 -5 147 16 12 16 15 -9 58 -27 49 -25 72 7 62 27 -9 24 7 -12 65 -32 52
-31 70 2 70 25 0 22 12 -27 114 -43 89 -43 105 -3 113 26 5 30 9 24 30 -5 21
-39 81 -95 169 -11 18 -10 25 9 51 21 28 22 32 8 60 -9 16 -23 35 -31 42 -20
17 -21 41 -2 41 50 0 14 67 -67 126 -34 25 -64 51 -66 56 -9 26 227 -30 318
-75 43 -21 46 -26 73 -107 16 -47 26 -95 23 -108 -6 -24 23 -90 49 -111 10 -9
16 -30 16 -57 0 -23 12 -75 26 -114 25 -69 25 -72 7 -92 -26 -29 -23 -153 6
-232 25 -70 27 -133 6 -183 -12 -29 -15 -72 -14 -181 1 -112 -2 -147 -13 -153
-9 -6 -13 -30 -13 -78 l0 -70 28 27 c33 32 47 78 46 159 -1 33 4 70 10 81 6
11 11 61 11 111 0 82 2 91 21 102 20 10 21 16 15 84 -5 56 -3 75 8 84 28 24
37 94 21 176 -8 41 -18 81 -22 88 -4 6 -8 53 -8 102 0 83 -3 96 -37 165 -40
83 -65 157 -55 167 4 3 54 -38 112 -92 58 -53 105 -94 105 -91 0 24 -53 101
-109 159 -209 217 -661 356 -1057 326z"/>
<path d="M6388 11084 c-26 -8 -23 -43 5 -48 12 -3 62 -10 111 -16 49 -6 148
-22 220 -36 151 -29 341 -40 438 -27 37 5 73 6 79 2 17 -10 2 -91 -24 -131
-12 -18 -58 -56 -102 -85 -48 -31 -115 -89 -168 -145 -74 -78 -97 -111 -142
-203 -54 -109 -172 -270 -197 -270 -8 0 -16 22 -20 60 -13 103 -29 163 -44
169 -16 6 -19 1 -32 -60 -11 -49 -1 -133 32 -259 30 -113 31 -105 -66 -339
-81 -195 -125 -275 -172 -311 -37 -28 -62 -31 -90 -10 -28 21 -69 19 -167 -9
-94 -28 -125 -54 -193 -170 -53 -89 -51 -96 35 -96 l71 0 -7 -29 c-5 -22 -1
-38 15 -60 12 -16 20 -35 18 -41 -2 -7 -66 -34 -142 -61 -76 -26 -141 -51
-144 -54 -20 -20 24 -10 143 31 95 33 139 44 147 36 16 -16 -7 -74 -45 -109
-28 -27 -42 -32 -109 -38 -77 -7 -119 -25 -58 -25 51 0 31 -22 -54 -58 -59
-26 -86 -32 -111 -28 -48 9 -81 40 -99 91 l-15 45 39 25 c37 23 60 52 60 73 0
14 -233 9 -237 -5 -2 -6 18 -27 46 -46 67 -48 74 -73 30 -109 -78 -65 -225
-93 -339 -64 -76 20 -192 75 -198 95 -4 11 4 13 39 7 110 -16 139 -18 139 -10
0 9 -260 60 -484 95 l-120 18 -48 48 c-61 60 -114 141 -101 154 6 6 20 6 39 0
162 -53 667 -191 697 -191 4 0 7 4 7 9 0 5 -55 22 -122 39 -122 31 -629 176
-658 189 -8 3 -24 7 -35 8 -11 1 -68 12 -127 23 -145 29 -277 37 -363 23 -39
-7 -77 -16 -85 -21 -26 -16 -3 -21 41 -9 67 19 267 15 384 -9 178 -36 180 -36
199 -86 9 -23 32 -69 52 -101 39 -66 35 -77 -31 -68 -59 8 -315 -15 -430 -38
-124 -25 -275 -69 -275 -81 0 -12 8 -11 100 17 188 56 455 90 629 78 71 -4 94
-10 131 -34 25 -16 66 -36 90 -44 55 -20 180 -45 224 -45 19 0 53 -14 86 -35
30 -19 68 -37 85 -39 16 -3 67 -9 111 -14 68 -8 92 -16 145 -48 60 -37 66 -39
148 -39 68 0 104 6 172 29 83 28 87 28 121 12 32 -16 143 -100 233 -179 l39
-34 -61 -59 c-58 -56 -83 -102 -83 -155 0 -9 -6 -22 -14 -28 -21 -18 -182 -48
-316 -60 -105 -10 -637 -35 -755 -36 l-50 0 -6 46 c-16 107 -94 196 -236 271
-172 90 -327 123 -560 116 -120 -3 -161 -8 -218 -27 -131 -43 -175 -63 -245
-112 -77 -55 -98 -82 -79 -105 20 -25 47 -15 86 32 69 83 293 171 461 181 105
7 204 -9 365 -58 70 -22 148 -42 173 -46 62 -8 103 -38 142 -103 40 -67 62
-138 62 -200 0 -38 -5 -51 -27 -72 -66 -61 -110 -58 -79 5 28 59 18 97 -25 97
-5 0 -9 -27 -9 -59 0 -80 -12 -109 -55 -127 -28 -11 -44 -12 -75 -4 -49 13
-56 24 -36 55 20 31 20 59 0 79 -22 23 -35 11 -23 -21 7 -19 6 -31 -5 -48 -16
-25 -74 -55 -105 -55 -17 0 -21 6 -21 36 0 46 -29 87 -84 119 -57 34 -76 32
-117 -12 -135 -143 -283 -372 -433 -671 -41 -82 -99 -152 -127 -152 -44 0
-138 118 -211 265 -80 159 -132 325 -157 495 -7 41 -23 112 -36 157 -28 91
-65 262 -65 299 0 17 8 27 25 34 21 8 25 16 25 52 0 24 -7 65 -15 92 -8 27
-15 70 -15 95 l-1 46 -25 -60 c-56 -135 -156 -444 -170 -529 -20 -113 -14
-417 12 -641 10 -86 17 -229 18 -335 1 -206 -1 -217 -99 -528 -70 -220 -89
-267 -201 -507 -92 -197 -141 -322 -159 -410 -13 -61 -148 -158 -287 -206
-133 -45 -241 -60 -443 -60 -209 -1 -349 14 -728 77 -311 51 -441 63 -476 44
-22 -11 -23 -17 -19 -85 4 -56 11 -84 33 -121 72 -122 206 -207 434 -275 68
-20 88 -21 275 -16 133 4 308 18 516 42 308 35 528 47 581 33 36 -11 41 -27
28 -111 -14 -97 -14 -460 0 -572 33 -257 84 -414 236 -725 169 -346 176 -373
195 -720 11 -220 15 -240 76 -365 23 -49 61 -146 84 -215 60 -180 175 -639
205 -820 32 -196 49 -261 83 -330 24 -49 35 -59 98 -92 114 -61 204 -80 379
-82 145 -1 152 0 206 26 35 18 72 47 100 80 68 79 79 100 79 143 0 34 -6 47
-37 77 -21 20 -65 49 -98 65 -79 36 -171 130 -213 215 -59 120 -67 170 -66
403 0 206 1 212 33 325 52 181 61 197 162 289 103 93 97 93 179 4 143 -156
249 -381 404 -863 36 -113 73 -217 81 -231 8 -15 30 -82 50 -149 39 -139 42
-145 115 -218 62 -62 125 -105 187 -128 41 -16 59 -17 167 -7 159 15 232 39
301 98 47 40 57 55 76 113 34 110 25 187 -27 233 -11 9 -57 40 -104 69 -150
92 -183 127 -251 262 -133 265 -149 372 -91 624 35 156 58 231 156 504 37 102
76 194 87 205 16 17 37 21 132 26 84 4 138 13 217 37 241 71 368 78 560 27
125 -33 207 -40 277 -26 32 6 111 15 177 21 135 11 199 37 213 88 12 43 8 396
-6 517 -21 190 -58 386 -145 779 -47 210 -96 442 -110 516 -39 213 -66 450
-52 450 2 0 41 7 87 16 86 16 123 31 175 70 26 20 43 24 105 24 71 0 81 3 174
51 116 60 135 74 135 103 0 38 -127 433 -136 424 -1 -2 11 -48 27 -103 37
-124 63 -288 50 -313 -5 -10 -49 -38 -97 -62 -78 -39 -98 -45 -174 -50 -80 -5
-89 -8 -139 -44 -62 -46 -119 -68 -142 -55 -38 20 -92 208 -129 444 -10 72
-40 295 -65 497 -25 202 -50 378 -55 390 -15 38 -12 -111 5 -247 8 -66 22
-214 30 -329 28 -365 71 -664 215 -1485 92 -525 132 -782 159 -1030 24 -209
45 -526 37 -546 -12 -33 -84 -56 -209 -66 -67 -5 -153 -12 -192 -15 -59 -5
-84 -1 -160 22 -80 25 -109 28 -255 32 l-165 3 -160 -41 c-236 -62 -340 -82
-435 -84 -102 -1 -145 12 -205 64 -25 21 -86 60 -137 85 -87 44 -97 47 -153
42 -36 -3 -110 -24 -184 -52 -69 -25 -144 -49 -168 -52 -66 -9 -161 21 -266
85 -116 70 -154 75 -261 38 -54 -18 -97 -26 -146 -26 l-70 0 0 33 c0 17 5 59
10 92 30 183 34 290 35 925 0 649 4 729 36 853 12 45 24 46 141 16 44 -11 86
-18 93 -15 18 7 62 133 84 244 27 132 41 317 41 551 0 222 15 463 30 492 18
33 56 34 118 2 51 -26 57 -32 60 -64 2 -19 -20 -186 -47 -370 -28 -183 -57
-395 -66 -469 -21 -177 -30 -418 -17 -450 l10 -25 5 25 c3 14 18 147 32 295
58 607 116 947 169 1000 21 21 24 21 126 9 58 -7 106 -13 108 -14 7 -1 -2
-106 -37 -423 -44 -390 -65 -626 -57 -634 9 -10 36 69 56 166 13 62 23 173 30
316 6 121 15 268 20 327 11 111 40 228 63 246 20 16 363 27 382 12 13 -11 15
-64 15 -380 0 -396 9 -672 21 -665 4 3 13 37 19 77 9 53 10 169 5 443 -8 405
-3 474 38 499 20 12 97 23 313 42 44 3 80 2 92 -5 27 -14 62 -100 79 -196 19
-106 19 -433 -2 -760 -17 -286 -20 -475 -5 -475 23 0 48 172 52 365 2 77 -1
298 -5 490 -9 354 -2 507 26 564 7 14 33 36 58 49 44 22 48 22 104 7 34 -8 74
-12 97 -9 46 8 61 -3 93 -66 52 -102 68 -251 54 -485 -19 -313 -13 -435 20
-435 5 0 13 19 20 43 25 95 33 180 33 352 0 202 -20 385 -57 522 -13 48 -21
91 -18 96 2 4 36 23 74 42 38 20 69 37 69 39 0 1 -73 -10 -162 -25 -608 -105
-1148 -115 -1738 -34 -166 23 -228 36 -233 49 -3 6 -1 34 4 61 13 82 11 95
-11 53 -26 -49 -68 -194 -85 -298 -26 -150 -35 -260 -50 -621 -14 -326 -28
-510 -41 -531 -9 -14 -25 -10 -168 43 -77 27 -168 57 -204 65 -64 15 -65 15
-115 -11 -62 -33 -92 -29 -173 23 -33 21 -67 41 -76 45 -23 8 -23 31 2 103 12
32 79 264 151 514 142 496 203 686 281 879 138 342 292 588 494 789 57 56 110
102 118 102 21 0 76 -94 69 -118 -13 -53 45 -81 96 -46 35 25 84 12 218 -57
65 -33 105 -50 88 -38 -93 72 -107 109 -43 120 20 3 53 19 73 35 107 85 111
86 182 91 40 3 107 -2 163 -11 92 -16 380 -90 410 -106 26 -13 17 -113 -20
-225 -48 -144 -67 -185 -86 -185 -20 0 -332 116 -456 171 -51 21 -88 35 -83
30 35 -33 533 -281 566 -281 18 0 58 105 90 237 33 135 55 193 75 193 16 0 62
-74 120 -192 77 -159 123 -198 171 -145 11 12 38 49 61 82 23 33 59 71 79 84
21 13 65 53 99 88 57 59 63 63 88 53 39 -15 135 -12 192 5 27 8 54 15 61 15 6
0 19 -24 27 -54 22 -74 88 -226 256 -586 78 -168 165 -358 193 -422 28 -65 52
-116 54 -115 4 5 -84 220 -244 597 -134 313 -233 567 -233 594 0 8 15 26 33
40 19 14 47 50 63 78 24 46 29 66 32 151 4 93 3 99 -23 137 -42 61 -130 139
-182 162 -35 15 -74 22 -142 25 l-95 4 -75 57 c-111 85 -181 152 -181 173 0
14 24 31 90 64 86 43 93 45 177 45 171 0 352 -39 603 -131 122 -44 169 -55
148 -33 -4 3 -80 32 -170 64 -188 67 -356 107 -487 117 -51 3 -94 10 -97 15
-3 5 10 27 30 48 20 22 36 46 37 53 2 36 6 58 12 63 3 3 56 15 119 26 91 17
157 21 346 22 127 0 232 3 232 7 0 9 -122 19 -240 19 -129 -1 -277 -14 -389
-36 -93 -19 -101 -15 -101 42 0 23 13 46 50 88 28 32 59 75 70 97 17 32 34 45
106 79 77 37 89 47 124 101 80 124 163 366 181 529 17 155 18 160 34 154 21
-9 90 61 120 121 44 91 127 186 273 313 238 207 282 271 282 413 0 65 -2 70
-19 64 -105 -33 -230 -24 -517 40 -192 43 -327 61 -366 49z m-390 -1854 c3
-29 -39 -77 -58 -65 -12 8 -4 62 13 83 16 20 42 10 45 -18z m92 1 c12 -23 3
-51 -15 -51 -20 0 -28 18 -21 46 8 29 22 31 36 5z m-1355 -417 c15 -6 15 -8 2
-15 -19 -11 -105 4 -120 21 -10 10 0 11 45 6 31 -3 64 -9 73 -12z m785 -119
c39 -29 54 -51 41 -59 -17 -11 -165 -27 -216 -24 l-50 3 60 31 c33 18 71 41
85 53 32 26 39 26 80 -4z m725 -332 c148 -77 208 -276 122 -404 -22 -33 -86
-83 -95 -75 -2 3 1 28 8 56 8 34 9 55 3 61 -7 7 -13 -1 -17 -22 -8 -43 -92
-124 -144 -140 -81 -24 -110 6 -120 119 -7 85 -12 87 -60 23 -22 -28 -64 -31
-92 -6 -24 22 -50 97 -50 146 0 50 55 154 101 191 20 16 62 40 95 54 49 21 71
24 134 21 51 -2 88 -10 115 -24z m-3429 -278 c38 -42 52 -44 65 -7 9 26 14 28
52 26 l42 -2 11 -143 c8 -101 22 -186 47 -285 69 -273 116 -375 213 -471 44
-43 64 -70 64 -87 0 -46 -50 -319 -80 -437 -46 -181 -89 -309 -104 -309 -8 0
-28 22 -45 48 -17 27 -42 59 -56 72 -14 13 -25 28 -25 33 0 6 18 27 40 47 69
64 53 106 -72 185 -27 17 -48 36 -48 42 0 7 13 19 30 28 39 20 53 47 40 79 -5
14 -38 63 -74 110 -36 47 -72 98 -80 114 -9 18 -24 129 -41 308 -14 153 -31
308 -37 343 -11 66 -7 309 6 329 11 18 17 15 52 -23z m2849 -14 c-35 -35 -235
-131 -272 -131 -36 0 -278 37 -303 46 -29 11 12 21 110 29 97 7 351 47 405 64
17 5 41 10 55 10 24 1 24 1 5 -18z m87 -43 c9 -7 27 -32 42 -55 29 -48 39 -55
85 -62 90 -15 59 -81 -128 -269 -120 -123 -135 -135 -145 -118 -6 11 -39 60
-73 110 -94 137 -115 175 -120 215 l-5 37 88 34 c48 19 117 53 153 77 71 47
79 49 103 31z m-762 -17 c23 -7 24 -8 5 -14 -20 -6 -91 6 -102 17 -9 8 66 6
97 -3z m-2235 -1296 c-4 -34 -2 -69 5 -90 11 -34 18 -38 75 -47 21 -4 21 -6 9
-89 -5 -31 -2 -39 26 -62 17 -15 55 -34 85 -42 77 -23 155 -63 155 -80 0 -8
-9 -38 -21 -67 -88 -223 -142 -426 -154 -579 l-7 -86 38 -30 c85 -66 153 -79
248 -47 60 21 161 14 208 -13 30 -17 33 -24 36 -74 4 -63 -11 -419 -38 -904
-26 -466 -43 -920 -36 -960 4 -20 19 -44 37 -59 43 -37 141 -37 236 0 85 32
122 28 200 -20 41 -25 86 -42 153 -56 52 -12 100 -28 106 -36 13 -17 5 -65
-25 -144 -44 -117 -109 -193 -296 -347 -104 -86 -230 -214 -252 -258 -19 -37
-24 -105 -29 -409 -6 -339 1 -401 56 -505 40 -74 160 -185 224 -207 27 -9 59
-31 81 -55 29 -32 35 -47 35 -83 0 -57 -38 -108 -67 -90 -10 6 -20 22 -21 35
-4 24 -48 79 -65 79 -4 0 1 -13 12 -29 25 -35 36 -81 27 -116 -9 -35 -74 -64
-144 -65 -71 0 -90 12 -103 65 -11 42 -54 103 -65 92 -3 -3 4 -20 15 -38 72
-118 -45 -174 -202 -96 -83 41 -146 92 -177 142 -15 25 -32 93 -56 228 -23
129 -62 293 -118 493 -47 164 -112 400 -145 524 -33 124 -66 241 -75 261 -17
42 -32 175 -45 419 -15 264 -36 329 -159 500 -66 92 -122 201 -174 340 -100
265 -119 484 -71 845 23 172 31 210 44 213 18 3 42 -49 33 -71 -2 -7 2 -21 10
-32 13 -17 27 -20 110 -21 52 0 98 -3 102 -7 4 -3 -10 -25 -30 -47 -20 -22
-36 -44 -36 -49 0 -16 55 -50 165 -101 104 -49 120 -65 90 -90 -9 -7 -15 -23
-13 -34 4 -31 82 -49 182 -42 87 6 122 22 132 62 9 37 -19 60 -158 134 -65 34
-118 66 -118 71 0 5 8 12 18 16 30 11 51 34 45 51 -17 47 -104 122 -190 166
-29 14 -53 30 -53 35 0 5 23 17 52 27 111 41 82 94 -84 155 l-57 21 2 67 c2
71 2 70 -94 250 -30 57 -34 73 -34 140 0 68 4 82 36 141 20 36 43 66 51 68 9
2 27 -8 41 -21 14 -13 42 -32 61 -42 39 -21 46 -40 18 -49 -11 -4 -30 -18 -43
-32 -31 -33 -18 -54 44 -75 26 -8 50 -18 53 -22 3 -3 -7 -17 -22 -32 l-29 -25
25 -21 c20 -17 25 -30 25 -67 l0 -46 63 -17 c50 -13 73 -26 118 -69 30 -29 58
-50 61 -47 7 8 -30 82 -78 157 -21 33 -39 64 -39 69 0 4 23 11 52 14 28 4 58
13 66 21 21 20 -6 65 -67 113 -28 21 -50 43 -51 49 0 14 23 24 55 24 70 0 43
63 -72 168 -45 42 -83 82 -83 90 0 8 9 25 20 39 27 34 25 77 -6 159 -22 59
-25 80 -21 144 6 86 49 210 74 210 13 0 14 -9 8 -55z m-2152 -1169 c43 -7 82
-17 88 -23 7 -7 6 -25 -2 -57 -15 -59 -7 -131 18 -165 23 -30 92 -56 128 -47
34 9 40 42 25 132 -12 71 -12 77 6 95 19 19 20 19 94 -2 90 -24 96 -29 105
-77 12 -63 35 -99 92 -143 72 -54 80 -46 64 64 -6 47 -9 92 -5 101 5 13 23 16
108 16 67 0 108 -4 118 -12 9 -7 23 -46 33 -86 10 -40 25 -82 35 -94 15 -19
22 -20 61 -12 l44 9 3 86 3 86 86 17 c47 10 89 14 93 9 3 -4 12 -27 18 -49 14
-50 46 -92 78 -104 41 -16 54 -3 54 52 0 73 22 108 68 108 35 0 117 -45 137
-76 21 -33 45 -118 36 -131 -3 -6 -68 -13 -143 -17 -125 -6 -226 -16 -618 -62
-209 -25 -440 -23 -580 4 -66 13 -140 35 -175 52 -144 70 -319 260 -278 301
14 14 83 38 108 38 11 0 55 -6 98 -13z m4185 -2190 c64 -30 130 -58 145 -62
38 -9 42 -22 27 -112 -24 -150 -108 -393 -168 -484 -22 -33 -24 -50 -29 -191
-11 -300 27 -460 158 -654 57 -84 104 -125 225 -194 49 -28 99 -60 112 -72 28
-26 30 -85 3 -118 l-19 -23 -30 32 c-16 17 -38 32 -49 32 -13 0 -9 -5 14 -20
40 -24 53 -48 53 -99 0 -48 -33 -92 -92 -122 -54 -28 -77 -19 -113 42 -29 49
-71 89 -95 89 -6 0 10 -26 36 -57 76 -94 79 -125 13 -143 -89 -24 -299 51
-392 142 -40 39 -46 51 -61 123 -29 139 -54 210 -150 428 -165 376 -337 815
-352 897 l-13 75 35 78 c19 43 52 137 74 210 41 135 69 217 75 217 1 0 47 9
101 20 238 50 325 44 492 -34z"/>
<path d="M4567 10958 c-40 -85 -80 -139 -234 -306 -62 -67 -113 -129 -113
-137 0 -81 269 194 376 384 16 28 35 53 43 56 26 10 115 -43 256 -155 144
-114 222 -170 237 -170 49 0 -118 166 -272 270 -92 62 -220 130 -244 130 -9 0
-29 -30 -49 -72z"/>
<path d="M6675 10804 c-107 -21 -135 -29 -168 -46 -48 -24 -67 -66 -67 -152 0
-49 5 -69 20 -87 23 -28 23 -27 24 71 2 82 20 130 59 152 14 8 82 15 187 18
112 4 173 10 190 19 23 13 24 15 5 22 -20 8 -213 10 -250 3z"/>
<path d="M4571 10659 c-57 -72 -101 -132 -99 -134 7 -8 142 86 189 132 47 45
47 45 85 33 22 -7 52 -19 67 -27 16 -8 30 -13 32 -11 5 5 -153 138 -162 137
-5 0 -55 -59 -112 -130z"/>
<path d="M3985 10499 c5 -8 23 -34 40 -59 18 -25 43 -65 55 -89 19 -38 21 -50
11 -80 -10 -35 -3 -92 15 -122 21 -37 178 -199 271 -280 78 -70 102 -96 98
-110 -5 -13 3 -22 27 -35 42 -21 86 -61 104 -96 23 -44 19 -51 -26 -43 -32 5
-40 4 -40 -9 0 -45 85 -73 121 -40 14 12 22 13 39 4 30 -16 34 -7 16 29 -9 16
-16 37 -16 45 0 8 -32 44 -72 80 -56 51 -69 69 -60 78 7 7 12 15 12 19 0 10
-160 109 -176 109 -6 0 -38 30 -70 68 -32 37 -86 97 -120 133 -63 66 -63 66
-52 102 10 33 8 43 -25 109 -34 70 -112 173 -145 192 -11 6 -13 5 -7 -5z"/>
<path d="M4170 9947 c0 -3 7 -21 16 -42 8 -21 13 -43 10 -50 -7 -19 220 -235
249 -235 11 0 12 6 3 33 -16 46 -23 53 -100 94 -92 48 -108 82 -44 94 15 3 8
12 -35 45 -54 41 -99 68 -99 61z"/>
<path d="M4675 9484 c-31 -32 -6 -216 39 -285 38 -57 118 -92 223 -97 80 -4
85 -3 101 19 9 13 17 33 17 44 1 45 18 106 28 102 21 -7 49 -54 54 -94 4 -34
1 -44 -16 -59 -27 -23 -27 -44 -1 -44 27 0 59 69 60 126 0 68 -18 100 -89 159
-91 76 -148 102 -256 115 -49 6 -102 15 -117 20 -21 7 -32 5 -43 -6z m147 -92
c5 -5 6 -45 2 -97 -8 -98 -20 -112 -60 -74 -58 54 -84 156 -46 179 19 12 89 7
104 -8z m102 -48 c9 -3 16 -12 16 -19 0 -16 -25 -26 -45 -19 -18 7 -20 30 -2
37 6 3 13 6 14 6 1 1 8 -2 17 -5z m40 -100 c30 -30 8 -90 -30 -83 -14 3 -20
14 -22 43 -4 52 21 71 52 40z"/>
<path d="M6790 6615 c0 -5 5 -17 10 -25 5 -8 10 -10 10 -5 0 6 -5 17 -10 25
-5 8 -10 11 -10 5z"/>
<path d="M6810 6565 c0 -5 5 -17 10 -25 5 -8 10 -10 10 -5 0 6 -5 17 -10 25
-5 8 -10 11 -10 5z"/>
</g>
</svg>
